<svg width="500" height="500" viewBox="0 0 500 500" fill="none" xmlns="http://www.w3.org/2000/svg">
<rect width="32" height="32" transform="matrix(-1 0 0 1 70 266)" fill="black"/>
<rect width="32" height="32" transform="matrix(-1 0 0 1 102 202)" fill="black"/>
<rect x="-0.5" y="0.5" width="31" height="31" transform="matrix(-1 0 0 1 132 202)" stroke="black"/>
<rect width="32" height="32" transform="matrix(-1 0 0 1 101 266)" fill="black"/>
<rect width="32" height="32" transform="matrix(-1 0 0 1 70 234)" fill="black"/>
<rect width="32" height="32" transform="matrix(-1 0 0 1 133 234)" fill="black"/>
<path d="M155.624 272V240.896C155.624 238.293 156.264 235.968 157.544 233.92C158.824 231.829 160.573 230.187 162.792 228.992C165.053 227.797 167.613 227.2 170.472 227.2H188.2V238.016H172.584C171.688 238.016 170.941 238.315 170.344 238.912C169.747 239.509 169.448 240.256 169.448 241.152V246.08H186.152V256.64H169.448V272H155.624ZM203.132 284.992V271.872C200.913 271.189 198.972 270.187 197.308 268.864C195.687 267.499 194.428 265.899 193.532 264.064C192.679 262.187 192.252 260.139 192.252 257.92V238.848H204.476V257.024C204.476 257.835 204.668 258.603 205.052 259.328C205.436 260.053 205.991 260.651 206.716 261.12C207.441 261.589 208.295 261.824 209.276 261.824C210.3 261.824 211.153 261.589 211.836 261.12C212.561 260.651 213.095 260.053 213.436 259.328C213.82 258.603 214.012 257.835 214.012 257.024V238.848H226.3V257.92C226.3 260.139 225.873 262.208 225.02 264.128C224.167 266.005 222.929 267.627 221.308 268.992C219.687 270.315 217.724 271.296 215.42 271.936V284.992H203.132ZM231.687 272V249.152C231.687 245.995 232.604 243.499 234.439 241.664C236.273 239.829 238.833 238.912 242.119 238.912H252.743V248.192H246.407C245.681 248.192 245.084 248.427 244.615 248.896C244.188 249.323 243.975 249.899 243.975 250.624V272H231.687ZM270.265 272.832C267.492 272.832 264.996 272.128 262.777 270.72C260.558 269.312 258.809 267.371 257.529 264.896C256.249 262.379 255.609 259.456 255.609 256.128C255.609 252.587 256.398 249.472 257.977 246.784C259.556 244.053 261.732 241.92 264.505 240.384C267.321 238.848 270.585 238.08 274.297 238.08C277.924 238.08 281.081 238.827 283.769 240.32C286.457 241.771 288.548 243.819 290.041 246.464C291.577 249.067 292.345 252.096 292.345 255.552V272H280.697V267.072H280.313C279.758 268.224 279.012 269.248 278.073 270.144C277.177 270.997 276.089 271.659 274.809 272.128C273.529 272.597 272.014 272.832 270.265 272.832ZM274.041 262.08C275.193 262.08 276.196 261.803 277.049 261.248C277.945 260.693 278.628 259.925 279.097 258.944C279.609 257.92 279.865 256.768 279.865 255.488C279.865 254.251 279.609 253.163 279.097 252.224C278.628 251.285 277.945 250.539 277.049 249.984C276.196 249.429 275.193 249.152 274.041 249.152C272.932 249.152 271.929 249.429 271.033 249.984C270.137 250.539 269.433 251.285 268.921 252.224C268.452 253.163 268.217 254.251 268.217 255.488C268.217 256.768 268.452 257.92 268.921 258.944C269.433 259.925 270.137 260.693 271.033 261.248C271.929 261.803 272.932 262.08 274.041 262.08ZM329.727 272C326.697 272 324.052 271.36 321.791 270.08C319.529 268.8 317.78 267.115 316.543 265.024C315.305 262.891 314.687 260.544 314.687 257.984V227.2H328.51V258.112C328.51 258.923 328.788 259.648 329.343 260.288C329.94 260.885 330.665 261.184 331.519 261.184H343.359V272H329.727ZM361.078 272.832C358.304 272.832 355.808 272.128 353.59 270.72C351.371 269.312 349.622 267.371 348.342 264.896C347.062 262.379 346.422 259.456 346.422 256.128C346.422 252.587 347.211 249.472 348.79 246.784C350.368 244.053 352.544 241.92 355.318 240.384C358.134 238.848 361.398 238.08 365.11 238.08C368.736 238.08 371.894 238.827 374.582 240.32C377.27 241.771 379.36 243.819 380.854 246.464C382.39 249.067 383.158 252.096 383.158 255.552V272H371.51V267.072H371.126C370.571 268.224 369.824 269.248 368.886 270.144C367.99 270.997 366.902 271.659 365.622 272.128C364.342 272.597 362.827 272.832 361.078 272.832ZM364.854 262.08C366.006 262.08 367.008 261.803 367.862 261.248C368.758 260.693 369.44 259.925 369.91 258.944C370.422 257.92 370.678 256.768 370.678 255.488C370.678 254.251 370.422 253.163 369.91 252.224C369.44 251.285 368.758 250.539 367.862 249.984C367.008 249.429 366.006 249.152 364.854 249.152C363.744 249.152 362.742 249.429 361.846 249.984C360.95 250.539 360.246 251.285 359.734 252.224C359.264 253.163 359.03 254.251 359.03 255.488C359.03 256.768 359.264 257.92 359.734 258.944C360.246 259.925 360.95 260.693 361.846 261.248C362.742 261.803 363.744 262.08 364.854 262.08ZM406.93 272.832C403.303 272.832 400.103 272.085 397.33 270.592C394.556 269.099 392.402 267.008 390.866 264.32C389.33 261.632 388.562 258.475 388.562 254.848V225.28H400.85V241.472H401.234C401.874 240.704 402.62 240.064 403.474 239.552C404.327 239.04 405.266 238.677 406.29 238.464C407.314 238.208 408.402 238.08 409.554 238.08C412.498 238.08 415.164 238.784 417.554 240.192C419.943 241.6 421.82 243.563 423.186 246.08C424.594 248.597 425.298 251.563 425.298 254.976C425.298 257.621 424.85 260.032 423.954 262.208C423.1 264.384 421.863 266.283 420.242 267.904C418.62 269.483 416.679 270.699 414.418 271.552C412.199 272.405 409.703 272.832 406.93 272.832ZM406.93 262.08C408.082 262.08 409.084 261.803 409.938 261.248C410.834 260.693 411.516 259.925 411.986 258.944C412.498 257.92 412.754 256.768 412.754 255.488C412.754 254.251 412.498 253.163 411.986 252.224C411.516 251.285 410.834 250.539 409.938 249.984C409.084 249.429 408.082 249.152 406.93 249.152C405.82 249.152 404.818 249.429 403.922 249.984C403.026 250.539 402.322 251.285 401.81 252.224C401.34 253.163 401.106 254.251 401.106 255.488C401.106 256.768 401.34 257.92 401.81 258.944C402.322 259.925 403.026 260.693 403.922 261.248C404.818 261.803 405.82 262.08 406.93 262.08ZM430.127 272V263.296H445.615C445.956 263.296 446.234 263.232 446.447 263.104C446.66 262.933 446.831 262.741 446.959 262.528C447.087 262.272 447.151 262.016 447.151 261.76C447.151 261.504 447.087 261.269 446.959 261.056C446.831 260.8 446.66 260.608 446.447 260.48C446.234 260.352 445.956 260.288 445.615 260.288H440.623C438.447 260.288 436.463 259.925 434.671 259.2C432.879 258.432 431.45 257.259 430.383 255.68C429.359 254.059 428.847 251.989 428.847 249.472C428.847 247.509 429.316 245.739 430.255 244.16C431.236 242.539 432.559 241.259 434.223 240.32C435.887 239.339 437.722 238.848 439.727 238.848H456.559V247.552H442.607C442.18 247.552 441.818 247.701 441.519 248C441.263 248.299 441.135 248.64 441.135 249.024C441.135 249.408 441.263 249.749 441.519 250.048C441.818 250.347 442.18 250.496 442.607 250.496H447.215C449.69 250.496 451.823 250.88 453.615 251.648C455.45 252.373 456.858 253.525 457.839 255.104C458.82 256.683 459.311 258.731 459.311 261.248C459.311 263.211 458.799 265.003 457.775 266.624C456.794 268.245 455.471 269.547 453.807 270.528C452.143 271.509 450.266 272 448.175 272H430.127Z" fill="black"/>
</svg>
