<?xml version="1.0" encoding="UTF-8" standalone="no"?>
<!DOCTYPE svg PUBLIC "-//W3C//DTD SVG 1.1//EN" "http://www.w3.org/Graphics/SVG/1.1/DTD/svg11.dtd">
<svg width="100%" height="100%" viewBox="0 0 1500 500" version="1.1" xmlns="http://www.w3.org/2000/svg" xmlns:xlink="http://www.w3.org/1999/xlink" xml:space="preserve" xmlns:serif="http://www.serif.com/" style="fill-rule:evenodd;clip-rule:evenodd;stroke-linecap:round;stroke-linejoin:round;stroke-miterlimit:1.5;">
    <g transform="matrix(0.999795,0,0,1.02943,-0.424329,-1.49991)">
        <rect x="0.424" y="1.457" width="1500.31" height="485.704" style="fill:rgb(24,24,27);"/>
    </g>
    <g transform="matrix(1,0,0,1,406.785,214.921)">
        <text x="463.553px" y="146.019px" style="font-family:'SatoshiVariable-Bold_Bold', 'Satoshi Variable';font-weight:900;font-size:60px;fill:rgb(249,250,251);">The futur<tspan x="728.153px " y="146.019px ">e</tspan> is open,</text>
        <text x="689.873px" y="212.019px" style="font-family:'SatoshiVariable-Bold_Bold', 'Satoshi Variable';font-weight:900;font-size:60px;fill:rgb(249,250,251);">w<tspan x="738.233px " y="212.019px ">e</tspan> b<tspan x="826.313px " y="212.019px ">u</tspan>ild it<tspan x="985.493px " y="212.019px ">.</tspan></text>
    </g>
    <g>
        <path d="M566.45,170.047C563.021,148.501 606.541,105.817 615.908,98.477C622.222,93.53 629.22,89.214 636.709,86.279C660.576,76.926 683.45,86.734 692.185,111.151C704.065,144.355 695.374,180.673 728.456,202.846" style="fill:none;stroke:url(#_Linear1);stroke-width:2px;"/>
        <path d="M0,266.947C15.315,251.739 28.11,230.349 39.557,212.282C68.554,166.516 95.514,113.402 136.153,76.589C178.63,38.112 240.449,61.675 264.637,-5.832" style="fill:none;stroke:url(#_Linear2);stroke-width:2px;"/>
        <path d="M218.219,500C235.407,406.294 133.284,410.76 80.929,371.625C35.563,337.714 21.01,267.701 35.084,219.353" style="fill:none;stroke:url(#_Linear3);stroke-width:2px;"/>
        <path d="M102.722,384.491C116.708,384.62 135.304,383.82 148.785,379.783C225.696,356.749 223.331,265.825 255.506,206.979C262.638,193.936 271.095,180.175 281.702,169.683C311.743,139.971 344.421,150.279 372.109,173.27" style="fill:none;stroke:url(#_Linear4);stroke-width:2px;"/>
        <path d="M372.109,173.27C415.409,209.929 383.458,285.093 394.397,345.457C404.464,401.016 456.974,457.901 467.5,513.655" style="fill:none;stroke:url(#_Linear5);stroke-width:2px;"/>
        <path d="M566.353,169.471C573.159,210.028 539.614,246.891 507.583,267.31C497.42,273.789 486.721,279.747 476.037,285.327C467.784,289.637 459.247,293.33 450.68,296.964C433.367,304.308 392.393,325.188 392.314,326.902" style="fill:none;stroke:url(#_Linear6);stroke-width:2px;"/>
        <path d="M813.599,500.793C790.89,483.054 761.828,463.761 752.359,434.975C746.336,416.668 749.555,402.003 736.554,384.86C717.418,359.625 678.068,344.213 648.095,335.246" style="fill:none;stroke:url(#_Linear7);stroke-width:2px;"/>
        <path d="M463.944,291.32C491.719,285.712 521.477,279.313 549.423,287.299C586.564,297.911 614.493,326.657 651.671,335.864" style="fill:none;stroke:url(#_Linear8);stroke-width:2px;"/>
        <path d="M728.456,202.846C738.441,208.675 751.613,214.255 763.398,210.762C769.243,209.03 773.974,204.636 777.825,200.097C786.255,190.163 791.093,177.575 795.6,165.521C797.13,161.429 798.519,157.289 799.962,153.166C802.153,146.908 803.116,144.212 805.547,137.733C808.414,130.087 811.861,122.657 814.418,114.902C818.048,103.888 827.78,94.202 833.028,90.226" style="fill:none;stroke:url(#_Linear9);stroke-width:2px;"/>
        <path d="M833.028,90.226C866.148,65.361 912.007,51.564 954.295,53.606" style="fill:none;stroke:url(#_Linear10);stroke-width:2px;"/>
        <path d="M1531.03,72.452C1438.86,70.74 1364.93,30.502 1288.89,105.155" style="fill:none;stroke:url(#_Linear11);stroke-width:2px;"/>
        <path d="M852.958,-0.739C869.797,15.622 889.846,31.921 912.306,39.896C956.217,55.486 975.001,53.774 1022.6,97.86C1031.67,106.261 1051.66,136.4 1062.95,136.622" style="fill:none;stroke:url(#_Linear12);stroke-width:2px;"/>
        <path d="M1288.98,105.215C1278.83,112.437 1269.01,119.307 1257.16,123.541C1247.23,127.092 1223.48,129.415 1204.27,130.891C1199.76,131.238 1178.71,131.79 1157.52,132.31C1146.83,132.573 1125.95,133.496 1106.53,134.421C1084.51,135.47 1064.35,136.523 1062.95,136.622" style="fill:none;stroke:url(#_Linear13);stroke-width:2px;"/>
        <path d="M1518.34,270.923C1485.16,268.749 1455.93,249.788 1426.99,235.146C1397.9,220.438 1364.91,208.242 1332.44,204.313C1268.89,196.623 1194.72,244.313 1136.5,204.584C1095.46,176.586 1090.91,174.685 1061.03,136.622" style="fill:none;stroke:url(#_Linear14);stroke-width:2px;"/>
    </g>
    <defs>
        <linearGradient id="_Linear1" x1="0" y1="0" x2="1" y2="0" gradientUnits="userSpaceOnUse" gradientTransform="matrix(1531.03,0,0,519.486,0,253.912)"><stop offset="0" style="stop-color:rgb(236,72,153);stop-opacity:1"/><stop offset="1" style="stop-color:rgb(59,130,246);stop-opacity:1"/></linearGradient>
        <linearGradient id="_Linear2" x1="0" y1="0" x2="1" y2="0" gradientUnits="userSpaceOnUse" gradientTransform="matrix(1531.03,0,0,519.486,0,253.912)"><stop offset="0" style="stop-color:rgb(236,72,153);stop-opacity:1"/><stop offset="1" style="stop-color:rgb(59,130,246);stop-opacity:1"/></linearGradient>
        <linearGradient id="_Linear3" x1="0" y1="0" x2="1" y2="0" gradientUnits="userSpaceOnUse" gradientTransform="matrix(1531.03,0,0,519.486,0,253.912)"><stop offset="0" style="stop-color:rgb(236,72,153);stop-opacity:1"/><stop offset="1" style="stop-color:rgb(59,130,246);stop-opacity:1"/></linearGradient>
        <linearGradient id="_Linear4" x1="0" y1="0" x2="1" y2="0" gradientUnits="userSpaceOnUse" gradientTransform="matrix(1531.03,0,0,519.486,0,253.912)"><stop offset="0" style="stop-color:rgb(236,72,153);stop-opacity:1"/><stop offset="1" style="stop-color:rgb(59,130,246);stop-opacity:1"/></linearGradient>
        <linearGradient id="_Linear5" x1="0" y1="0" x2="1" y2="0" gradientUnits="userSpaceOnUse" gradientTransform="matrix(1531.03,0,0,519.486,0,253.912)"><stop offset="0" style="stop-color:rgb(236,72,153);stop-opacity:1"/><stop offset="1" style="stop-color:rgb(59,130,246);stop-opacity:1"/></linearGradient>
        <linearGradient id="_Linear6" x1="0" y1="0" x2="1" y2="0" gradientUnits="userSpaceOnUse" gradientTransform="matrix(1531.03,0,0,519.486,0,253.912)"><stop offset="0" style="stop-color:rgb(236,72,153);stop-opacity:1"/><stop offset="1" style="stop-color:rgb(59,130,246);stop-opacity:1"/></linearGradient>
        <linearGradient id="_Linear7" x1="0" y1="0" x2="1" y2="0" gradientUnits="userSpaceOnUse" gradientTransform="matrix(1531.03,0,0,519.486,0,253.912)"><stop offset="0" style="stop-color:rgb(236,72,153);stop-opacity:1"/><stop offset="1" style="stop-color:rgb(59,130,246);stop-opacity:1"/></linearGradient>
        <linearGradient id="_Linear8" x1="0" y1="0" x2="1" y2="0" gradientUnits="userSpaceOnUse" gradientTransform="matrix(1531.03,0,0,519.486,0,253.912)"><stop offset="0" style="stop-color:rgb(236,72,153);stop-opacity:1"/><stop offset="1" style="stop-color:rgb(59,130,246);stop-opacity:1"/></linearGradient>
        <linearGradient id="_Linear9" x1="0" y1="0" x2="1" y2="0" gradientUnits="userSpaceOnUse" gradientTransform="matrix(1531.03,0,0,519.486,0,253.912)"><stop offset="0" style="stop-color:rgb(236,72,153);stop-opacity:1"/><stop offset="1" style="stop-color:rgb(59,130,246);stop-opacity:1"/></linearGradient>
        <linearGradient id="_Linear10" x1="0" y1="0" x2="1" y2="0" gradientUnits="userSpaceOnUse" gradientTransform="matrix(1531.03,0,0,519.486,0,253.912)"><stop offset="0" style="stop-color:rgb(236,72,153);stop-opacity:1"/><stop offset="1" style="stop-color:rgb(59,130,246);stop-opacity:1"/></linearGradient>
        <linearGradient id="_Linear11" x1="0" y1="0" x2="1" y2="0" gradientUnits="userSpaceOnUse" gradientTransform="matrix(1531.03,0,0,519.486,0,253.912)"><stop offset="0" style="stop-color:rgb(236,72,153);stop-opacity:1"/><stop offset="1" style="stop-color:rgb(59,130,246);stop-opacity:1"/></linearGradient>
        <linearGradient id="_Linear12" x1="0" y1="0" x2="1" y2="0" gradientUnits="userSpaceOnUse" gradientTransform="matrix(1531.03,0,0,519.486,0,253.912)"><stop offset="0" style="stop-color:rgb(236,72,153);stop-opacity:1"/><stop offset="1" style="stop-color:rgb(59,130,246);stop-opacity:1"/></linearGradient>
        <linearGradient id="_Linear13" x1="0" y1="0" x2="1" y2="0" gradientUnits="userSpaceOnUse" gradientTransform="matrix(1531.03,0,0,519.486,0,253.912)"><stop offset="0" style="stop-color:rgb(236,72,153);stop-opacity:1"/><stop offset="1" style="stop-color:rgb(59,130,246);stop-opacity:1"/></linearGradient>
        <linearGradient id="_Linear14" x1="0" y1="0" x2="1" y2="0" gradientUnits="userSpaceOnUse" gradientTransform="matrix(1531.03,0,0,519.486,0,253.912)"><stop offset="0" style="stop-color:rgb(236,72,153);stop-opacity:1"/><stop offset="1" style="stop-color:rgb(59,130,246);stop-opacity:1"/></linearGradient>
    </defs>
</svg>
